# xmcd CD database file
#
# Track frame offsets:
#	150
#	31965
#	67673
#	79010
#	98703
#	111213
#	123760
#	163790
#	208153
#
# Disc length: 3173 seconds
#
# Revision: 0
# Processed by: cddbd v1.5.2PL0 Copyright (c) Steve Scherf et al.
# Submitted via: CDex 1.50
#
DISCID=6b0c6309
DTITLE=Hank Mobley - The Complete Hank Mobley On Savoy Disk2
DYEAR=1995
DGENRE=Jazz
TTITLE0=Hank's Shout
TTITLE1=Bet
TTITLE2=Softly as in a Morning Sunrise
TTITLE3=PS I Love You
TTITLE4=Easy Living
TTITLE5=That's All
TTITLE6=Nostalgia
TTITLE7=Thad's Blues
TTITLE8=Doug's Minor B'OK
EXTD=YEAR: 1995
EXTT0=
EXTT1=
EXTT2=
EXTT3=
EXTT4=
EXTT5=
EXTT6=
EXTT7=
EXTT8=
PLAYORDER=
